<svg xmlns="http://www.w3.org/2000/svg" width="189.028" height="256" viewBox="0 0 189.028 256"><defs><style>.a{fill:#3c8a78;}</style></defs><title>location_mark</title><path class="a" d="M99.131,120.317c15.375,0,28.671-4.349,35.093-10.677H64.048C70.476,115.968,83.782,120.317,99.131,120.317Z" transform="translate(-1.988)"/><path class="a" d="M79.079,103.064l3.476-10.919H73.134l2.2-6.885h5.686c2.152,0,3.951-.917,4.413-2.609H74.053c-3.531,0-5.333.985-6.088,3.324L61.41,106.386H72.981C76.522,106.386,78.309,105.4,79.079,103.064Zm-8.764.71H69.4l2.914-9.02h.928c.6,0,1.174.338.922,1.183l-2.1,6.652A1.808,1.808,0,0,1,70.315,103.774Z" transform="translate(-1.988)"/><path class="a" d="M96.16,106.386c3.531,0,5.333-.988,6.1-3.322l6.54-20.413h-2.969c-3.841,0-4.961,1.357-6.088,3.324L94.88,94.482h-.252l3.794-11.831H96.27c-3.539,0-5.326.985-6.1,3.324l-6.547,20.411H86.6c3.833,0,4.961-1.358,6.08-3.322l4.871-8.514H97.8l-3.786,11.836Z" transform="translate(-1.988)"/><path class="a" d="M128.671,82.651c-3.841,0-5.026,1.357-6.088,3.324l-3.794,6.883h-.262l3.279-10.207h-2.144c-3.532,0-5.326.985-6.1,3.324l-6.558,20.411h2.162c3.522,0,5.316-.988,6.078-3.322l2.407-7.595h.252l-.4,10.917h.977c5.621,0,6.136-2.31,6.088-3.322l-.31-9.022,7.32-11.391Z" transform="translate(-1.988)"/><path class="a" d="M96.493,68.791c-15.35,0-28.656,4.349-35.083,10.676h70.176C125.163,73.14,111.867,68.791,96.493,68.791Z" transform="translate(-1.988)"/><path class="a" d="M56.651,180.233l0,0q-1.119-.521-2.223-1.068Q55.533,179.712,56.651,180.233Z" transform="translate(-1.988)"/><path class="a" d="M191.015,94.514a94.514,94.514,0,1,0-138.8,83.509l24.97-20.753,36.248-30.125q4.809-.79,9.269-1.979L82.529,158.659h0L56.653,180.231a93.967,93.967,0,0,0,33.188,8.556v60.552a6.661,6.661,0,0,0,13.322,0V188.791A94.517,94.517,0,0,0,191.015,94.514ZM121.174,33.676a65.391,65.391,0,0,1,6.9,3.28q-1.105-.6-2.234-1.169L96.1,60.6c-2.587.012-5.151.112-7.675.3ZM118.5,32.654q1.35.48,2.669,1.02Q119.849,33.137,118.5,32.654Zm12.071,5.751a65.849,65.849,0,0,1,7.964,5.689c-1.325-1.105-2.7-2.151-4.109-3.151l-24.576,20.48q-3.082-.387-6.278-.588Zm7.977,5.7c1.142.954,2.237,1.962,3.31,2.992l-19.9,16.59q-2.7-.693-5.508-1.235ZM136.582,8.9q2.069.97,4.082,2.036L115.725,31.731l-36.219,30.2q-4.629.742-8.992,1.892L110.7,30.42ZM107.46,29.792q-1.576-.266-3.179-.452C105.348,29.468,106.409,29.614,107.46,29.792Zm-59.408,109A65.589,65.589,0,0,1,104.173,29.328L56.9,68.735q-1.356.66-2.666,1.355c-11.866,6.405-18.4,15.08-18.4,24.426,0,7.643,4.523,14.7,12.151,20.381v4.431L50.9,116.9q2.035,1.289,4.268,2.466l-7.117,5.938v6.363l12.016-10c1.579.662,3.2,1.289,4.888,1.864l-16.9,14.115Zm2.774,2.851,19.743-16.41q2.7.724,5.548,1.3L54.261,144.751Q52.488,143.259,50.826,141.643Zm3.813,3.418c.474.392.95.781,1.435,1.16Q55.348,145.651,54.639,145.061Zm1.795,1.436c.549.423,1.1.84,1.667,1.246Q57.256,147.133,56.434,146.5Zm1.753,1.308L82.515,127.58c2.3.31,4.669.542,7.065.7L62.628,150.749C61.1,149.829,59.626,148.842,58.187,147.805Zm14.456,7.859c.562.221,1.123.442,1.692.648C73.765,156.108,73.205,155.884,72.643,155.664Zm-.812-.321q-2.347-.954-4.605-2.079L97.033,128.5q3.714-.023,7.317-.29Zm24.637-32.087c-30,0-55.354-13.16-55.354-28.74,0-15.542,25.352-28.672,55.354-28.672,30.037,0,55.411,13.13,55.411,28.672C151.879,110.1,126.505,123.256,96.468,123.256Zm.034,36.908a65.411,65.411,0,0,1-7.567-.45l48.007-39.9c12.4-6.228,20.225-15.26,20.225-25.3,0-7.567-4.3-14.69-12.216-20.523v-4.85l-3.224,2.686c-.952-.595-1.936-1.18-2.966-1.739-.382-.2-.765-.388-1.145-.58l7.335-6.1V56.8L132.528,67.163c-1.539-.63-3.119-1.222-4.753-1.759l17.176-14.273v-.894A65.632,65.632,0,0,1,96.5,160.164Z" transform="translate(-1.988)"/></svg>